<svg width="20" height="20" viewBox="0 0 20 20" fill="none" xmlns="http://www.w3.org/2000/svg">
<path d="M7.78725 2.70837C7.78725 2.29416 8.12304 1.95837 8.53725 1.95837H11.4517C11.866 1.95837 12.2017 2.29416 12.2017 2.70837C12.2017 3.12259 11.866 3.45837 11.4517 3.45837H8.53725C8.12304 3.45837 7.78725 3.12259 7.78725 2.70837Z" fill="#2E2F33" fill-opacity="0.88"/>
<path d="M6.37241 2.69645C6.38495 3.11048 6.05949 3.45628 5.64547 3.46882C4.93147 3.49046 4.63404 3.54703 4.42216 3.656L4.41458 3.65989C4.09302 3.82068 3.82551 4.08905 3.64401 4.43516C3.53574 4.6469 3.47947 4.94473 3.45791 5.65639C3.44536 6.07042 3.09956 6.39588 2.68554 6.38333C2.27152 6.37079 1.94606 6.02498 1.9586 5.61096C1.98014 4.90009 2.03152 4.29079 2.31115 3.74706L2.31344 3.74262C2.62784 3.14114 3.11419 2.63403 3.74002 2.32007C4.28277 2.04219 4.89086 1.991 5.60004 1.96951C6.01406 1.95697 6.35986 2.28243 6.37241 2.69645Z" fill="#2E2F33" fill-opacity="0.88"/>
<path d="M13.6166 2.69645C13.6291 2.28243 13.9749 1.95697 14.389 1.96951C15.0981 1.991 15.7062 2.04218 16.249 2.32007C16.8748 2.63403 17.3611 3.14114 17.6755 3.74263L17.6779 3.74705C17.9575 4.29078 18.0088 4.90009 18.0304 5.61096C18.0429 6.02498 17.7175 6.37079 17.3035 6.38333C16.8894 6.39588 16.5436 6.07042 16.5311 5.65639C16.5095 4.94473 16.4533 4.64691 16.345 4.43516C16.1635 4.08905 15.896 3.82063 15.5744 3.65985L15.5668 3.65604C15.3549 3.54707 15.0575 3.49046 14.3435 3.46882C13.9295 3.45628 13.604 3.11048 13.6166 2.69645Z" fill="#2E2F33" fill-opacity="0.88"/>
<path d="M2.70826 7.78739C3.12247 7.78739 3.45825 8.12318 3.45825 8.53739V11.4519C3.45825 11.8661 3.12247 12.2019 2.70826 12.2019C2.29404 12.2019 1.95826 11.8661 1.95826 11.4519V8.53739C1.95826 8.12318 2.29404 7.78739 2.70826 7.78739Z" fill="#2E2F33" fill-opacity="0.88"/>
<path d="M17.2807 7.78739C17.6949 7.78739 18.0307 8.12318 18.0307 8.53739V11.4519C18.0307 11.8661 17.6949 12.2019 17.2807 12.2019C16.8665 12.2019 16.5307 11.8661 16.5307 11.4519V8.53739C16.5307 8.12318 16.8665 7.78739 17.2807 7.78739Z" fill="#2E2F33" fill-opacity="0.88"/>
<path d="M17.3142 13.6167C17.7283 13.6293 18.0537 13.9751 18.0412 14.3891C18.0196 15.1 17.9683 15.7093 17.6886 16.253L17.6863 16.2575C17.3719 16.859 16.8855 17.3661 16.2596 17.6801C15.7169 17.9579 15.1089 18.0091 14.3998 18.0306C13.9857 18.0431 13.6399 17.7177 13.6274 17.3036C13.6148 16.8896 13.9403 16.5438 14.3543 16.5313C15.0683 16.5096 15.3658 16.4531 15.5776 16.3441L15.5852 16.3402C15.9068 16.1794 16.1743 15.911 16.3558 15.5649C16.464 15.3532 16.5203 15.0553 16.5419 14.3437C16.5544 13.9297 16.9002 13.6042 17.3142 13.6167Z" fill="#2E2F33" fill-opacity="0.88"/>
<path d="M2.68554 13.6275C3.09956 13.615 3.44536 13.9405 3.45791 14.3545C3.47955 15.0685 3.53611 15.3659 3.64508 15.5778L3.64898 15.5854C3.80976 15.9069 4.07814 16.1745 4.42424 16.3559C4.63599 16.4642 4.9338 16.5205 5.64547 16.5421C6.05949 16.5546 6.38495 16.9004 6.37241 17.3144C6.35986 17.7284 6.01406 18.0539 5.60004 18.0414C4.88917 18.0198 4.27987 17.9684 3.73614 17.6888L3.73171 17.6865C3.13023 17.3721 2.62311 16.8858 2.30916 16.2599C2.03127 15.7172 1.98009 15.1091 1.9586 14.3999C1.94606 13.9859 2.27152 13.6401 2.68554 13.6275Z" fill="#2E2F33" fill-opacity="0.88"/>
<path d="M7.78725 17.2809C7.78725 16.8667 8.12304 16.5309 8.53725 16.5309H11.4517C11.866 16.5309 12.2017 16.8667 12.2017 17.2809C12.2017 17.6951 11.866 18.0309 11.4517 18.0309H8.53725C8.12304 18.0309 7.78725 17.6951 7.78725 17.2809Z" fill="#2E2F33" fill-opacity="0.88"/>
</svg>
